<svg width="810" height="154" viewBox="0 0 810 154" fill="none" xmlns="http://www.w3.org/2000/svg">
<path d="M225.137 55L222.533 47.188H205.235L202.631 55H193.393L208.583 11.6H219.185L234.437 55H225.137ZM207.963 39.19H219.867L213.915 21.458L207.963 39.19ZM252.187 55.868C247.517 55.868 243.611 54.2973 240.469 51.156C237.369 48.0147 235.819 44.1293 235.819 39.5C235.819 34.8707 237.369 30.9853 240.469 27.844C243.611 24.7027 247.517 23.132 252.187 23.132C255.205 23.132 257.953 23.8553 260.433 25.302C262.913 26.7487 264.794 28.6913 266.075 31.13L259.193 35.16C258.573 33.8787 257.623 32.866 256.341 32.122C255.101 31.378 253.696 31.006 252.125 31.006C249.728 31.006 247.744 31.812 246.173 33.424C244.603 34.9947 243.817 37.02 243.817 39.5C243.817 41.9387 244.603 43.964 246.173 45.576C247.744 47.1467 249.728 47.932 252.125 47.932C253.737 47.932 255.163 47.5807 256.403 46.878C257.685 46.134 258.635 45.1213 259.255 43.84L266.199 47.808C264.835 50.2467 262.913 52.21 260.433 53.698C257.953 55.1447 255.205 55.868 252.187 55.868ZM284.701 55.868C280.03 55.868 276.124 54.2973 272.983 51.156C269.883 48.0147 268.333 44.1293 268.333 39.5C268.333 34.8707 269.883 30.9853 272.983 27.844C276.124 24.7027 280.03 23.132 284.701 23.132C287.718 23.132 290.467 23.8553 292.947 25.302C295.427 26.7487 297.308 28.6913 298.589 31.13L291.707 35.16C291.087 33.8787 290.136 32.866 288.855 32.122C287.615 31.378 286.21 31.006 284.639 31.006C282.242 31.006 280.258 31.812 278.687 33.424C277.116 34.9947 276.331 37.02 276.331 39.5C276.331 41.9387 277.116 43.964 278.687 45.576C280.258 47.1467 282.242 47.932 284.639 47.932C286.251 47.932 287.677 47.5807 288.917 46.878C290.198 46.134 291.149 45.1213 291.769 43.84L298.713 47.808C297.349 50.2467 295.427 52.21 292.947 53.698C290.467 55.1447 287.718 55.868 284.701 55.868ZM309.217 42.786C310.291 46.6713 313.205 48.614 317.959 48.614C321.017 48.614 323.332 47.5807 324.903 45.514L331.351 49.234C328.292 53.6567 323.787 55.868 317.835 55.868C312.709 55.868 308.597 54.318 305.497 51.218C302.397 48.118 300.847 44.212 300.847 39.5C300.847 34.8293 302.376 30.944 305.435 27.844C308.493 24.7027 312.42 23.132 317.215 23.132C321.761 23.132 325.502 24.7027 328.437 27.844C331.413 30.9853 332.901 34.8707 332.901 39.5C332.901 40.5333 332.797 41.6287 332.591 42.786H309.217ZM309.093 36.586H324.903C324.448 34.478 323.497 32.9073 322.051 31.874C320.645 30.8407 319.033 30.324 317.215 30.324C315.065 30.324 313.288 30.882 311.883 31.998C310.477 33.0727 309.547 34.602 309.093 36.586ZM344.651 32.804C344.651 33.6307 345.189 34.3127 346.263 34.85C347.379 35.346 348.723 35.8007 350.293 36.214C351.864 36.586 353.435 37.082 355.005 37.702C356.576 38.2807 357.899 39.2727 358.973 40.678C360.089 42.0833 360.647 43.84 360.647 45.948C360.647 49.1307 359.449 51.59 357.051 53.326C354.695 55.0207 351.74 55.868 348.185 55.868C341.82 55.868 337.48 53.4087 335.165 48.49L342.109 44.584C343.019 47.2707 345.044 48.614 348.185 48.614C351.037 48.614 352.463 47.7253 352.463 45.948C352.463 45.1213 351.905 44.46 350.789 43.964C349.715 43.4267 348.392 42.9513 346.821 42.538C345.251 42.1247 343.68 41.608 342.109 40.988C340.539 40.368 339.195 39.3967 338.079 38.074C337.005 36.71 336.467 35.0153 336.467 32.99C336.467 29.9313 337.583 27.534 339.815 25.798C342.089 24.0207 344.899 23.132 348.247 23.132C350.769 23.132 353.063 23.7107 355.129 24.868C357.196 25.984 358.829 27.596 360.027 29.704L353.207 33.424C352.215 31.316 350.562 30.262 348.247 30.262C347.214 30.262 346.346 30.4893 345.643 30.944C344.982 31.3987 344.651 32.0187 344.651 32.804ZM371.534 32.804C371.534 33.6307 372.071 34.3127 373.146 34.85C374.262 35.346 375.605 35.8007 377.176 36.214C378.747 36.586 380.317 37.082 381.888 37.702C383.459 38.2807 384.781 39.2727 385.856 40.678C386.972 42.0833 387.53 43.84 387.53 45.948C387.53 49.1307 386.331 51.59 383.934 53.326C381.578 55.0207 378.623 55.868 375.068 55.868C368.703 55.868 364.363 53.4087 362.048 48.49L368.992 44.584C369.901 47.2707 371.927 48.614 375.068 48.614C377.92 48.614 379.346 47.7253 379.346 45.948C379.346 45.1213 378.788 44.46 377.672 43.964C376.597 43.4267 375.275 42.9513 373.704 42.538C372.133 42.1247 370.563 41.608 368.992 40.988C367.421 40.368 366.078 39.3967 364.962 38.074C363.887 36.71 363.35 35.0153 363.35 32.99C363.35 29.9313 364.466 27.534 366.698 25.798C368.971 24.0207 371.782 23.132 375.13 23.132C377.651 23.132 379.945 23.7107 382.012 24.868C384.079 25.984 385.711 27.596 386.91 29.704L380.09 33.424C379.098 31.316 377.445 30.262 375.13 30.262C374.097 30.262 373.229 30.4893 372.526 30.944C371.865 31.3987 371.534 32.0187 371.534 32.804ZM189.767 100.132C193.322 100.132 196.153 101.289 198.261 103.604C200.411 105.919 201.485 109.019 201.485 112.904V132H193.487V113.462C193.487 111.602 193.033 110.155 192.123 109.122C191.214 108.089 189.933 107.572 188.279 107.572C186.461 107.572 185.035 108.171 184.001 109.37C183.009 110.569 182.513 112.305 182.513 114.578V132H174.515V113.462C174.515 111.602 174.061 110.155 173.151 109.122C172.242 108.089 170.961 107.572 169.307 107.572C167.53 107.572 166.104 108.171 165.029 109.37C163.996 110.569 163.479 112.305 163.479 114.578V132H155.481V101H163.479V104.286C165.339 101.517 168.212 100.132 172.097 100.132C175.9 100.132 178.711 101.62 180.529 104.596C182.596 101.62 185.675 100.132 189.767 100.132ZM231.838 101H239.836V132H231.838V128.342C229.441 131.359 226.072 132.868 221.732 132.868C217.599 132.868 214.044 131.297 211.068 128.156C208.133 124.973 206.666 121.088 206.666 116.5C206.666 111.912 208.133 108.047 211.068 104.906C214.044 101.723 217.599 100.132 221.732 100.132C226.072 100.132 229.441 101.641 231.838 104.658V101ZM217.082 122.824C218.694 124.436 220.74 125.242 223.22 125.242C225.7 125.242 227.746 124.436 229.358 122.824C231.011 121.171 231.838 119.063 231.838 116.5C231.838 113.937 231.011 111.85 229.358 110.238C227.746 108.585 225.7 107.758 223.22 107.758C220.74 107.758 218.694 108.585 217.082 110.238C215.47 111.85 214.664 113.937 214.664 116.5C214.664 119.063 215.47 121.171 217.082 122.824ZM255.087 106.332C255.831 104.348 257.05 102.86 258.745 101.868C260.481 100.876 262.403 100.38 264.511 100.38V109.308C262.072 109.019 259.881 109.515 257.939 110.796C256.037 112.077 255.087 114.206 255.087 117.182V132H247.089V101H255.087V106.332ZM297.77 132H288.47L277.186 117.926V132H269.188V88.6H277.186V114.64L287.85 101H297.398L284.936 116.314L297.77 132ZM306.28 119.786C307.355 123.671 310.269 125.614 315.022 125.614C318.081 125.614 320.396 124.581 321.966 122.514L328.414 126.234C325.356 130.657 320.85 132.868 314.898 132.868C309.773 132.868 305.66 131.318 302.56 128.218C299.46 125.118 297.91 121.212 297.91 116.5C297.91 111.829 299.44 107.944 302.498 104.844C305.557 101.703 309.484 100.132 314.278 100.132C318.825 100.132 322.566 101.703 325.5 104.844C328.476 107.985 329.964 111.871 329.964 116.5C329.964 117.533 329.861 118.629 329.654 119.786H306.28ZM306.156 113.586H321.966C321.512 111.478 320.561 109.907 319.114 108.874C317.709 107.841 316.097 107.324 314.278 107.324C312.129 107.324 310.352 107.882 308.946 108.998C307.541 110.073 306.611 111.602 306.156 113.586ZM352.371 108.688H345.365V121.584C345.365 122.659 345.634 123.444 346.171 123.94C346.709 124.436 347.494 124.725 348.527 124.808C349.561 124.849 350.842 124.829 352.371 124.746V132C346.874 132.62 342.989 132.103 340.715 130.45C338.483 128.797 337.367 125.841 337.367 121.584V108.688H331.973V101H337.367V94.738L345.365 92.32V101H352.371V108.688ZM364.723 109.804C364.723 110.631 365.26 111.313 366.335 111.85C367.451 112.346 368.794 112.801 370.365 113.214C371.935 113.586 373.506 114.082 375.077 114.702C376.647 115.281 377.97 116.273 379.045 117.678C380.161 119.083 380.719 120.84 380.719 122.948C380.719 126.131 379.52 128.59 377.123 130.326C374.767 132.021 371.811 132.868 368.257 132.868C361.891 132.868 357.551 130.409 355.237 125.49L362.181 121.584C363.09 124.271 365.115 125.614 368.257 125.614C371.109 125.614 372.535 124.725 372.535 122.948C372.535 122.121 371.977 121.46 370.861 120.964C369.786 120.427 368.463 119.951 366.893 119.538C365.322 119.125 363.751 118.608 362.181 117.988C360.61 117.368 359.267 116.397 358.151 115.074C357.076 113.71 356.539 112.015 356.539 109.99C356.539 106.931 357.655 104.534 359.887 102.798C362.16 101.021 364.971 100.132 368.319 100.132C370.84 100.132 373.134 100.711 375.201 101.868C377.267 102.984 378.9 104.596 380.099 106.704L373.279 110.424C372.287 108.316 370.633 107.262 368.319 107.262C367.285 107.262 366.417 107.489 365.715 107.944C365.053 108.399 364.723 109.019 364.723 109.804ZM425.225 101H433.223V132H425.225V128.342C422.828 131.359 419.459 132.868 415.119 132.868C410.986 132.868 407.431 131.297 404.455 128.156C401.52 124.973 400.053 121.088 400.053 116.5C400.053 111.912 401.52 108.047 404.455 104.906C407.431 101.723 410.986 100.132 415.119 100.132C419.459 100.132 422.828 101.641 425.225 104.658V101ZM410.469 122.824C412.081 124.436 414.127 125.242 416.607 125.242C419.087 125.242 421.133 124.436 422.745 122.824C424.398 121.171 425.225 119.063 425.225 116.5C425.225 113.937 424.398 111.85 422.745 110.238C421.133 108.585 419.087 107.758 416.607 107.758C414.127 107.758 412.081 108.585 410.469 110.238C408.857 111.85 408.051 113.937 408.051 116.5C408.051 119.063 408.857 121.171 410.469 122.824ZM440.475 132V86.74H448.473V132H440.475ZM455.794 132V86.74H463.792V132H455.794ZM490.58 97.28C489.257 97.28 488.1 96.8047 487.108 95.854C486.157 94.862 485.682 93.7047 485.682 92.382C485.682 91.0593 486.157 89.902 487.108 88.91C488.1 87.918 489.257 87.422 490.58 87.422C491.944 87.422 493.101 87.918 494.052 88.91C495.044 89.902 495.54 91.0593 495.54 92.382C495.54 93.7047 495.044 94.862 494.052 95.854C493.101 96.8047 491.944 97.28 490.58 97.28ZM486.612 132V101H494.61V132H486.612ZM519.166 100.132C522.556 100.132 525.346 101.269 527.536 103.542C529.768 105.815 530.884 108.957 530.884 112.966V132H522.886V113.958C522.886 111.891 522.328 110.321 521.212 109.246C520.096 108.13 518.608 107.572 516.748 107.572C514.682 107.572 513.028 108.213 511.788 109.494C510.548 110.775 509.928 112.697 509.928 115.26V132H501.93V101H509.928V104.472C511.871 101.579 514.95 100.132 519.166 100.132ZM579.626 128.156C576.443 131.297 572.558 132.868 567.97 132.868C563.382 132.868 559.496 131.297 556.314 128.156C553.172 124.973 551.602 121.088 551.602 116.5C551.602 111.912 553.172 108.047 556.314 104.906C559.496 101.723 563.382 100.132 567.97 100.132C572.558 100.132 576.443 101.723 579.626 104.906C582.808 108.047 584.4 111.912 584.4 116.5C584.4 121.088 582.808 124.973 579.626 128.156ZM561.956 122.638C563.568 124.25 565.572 125.056 567.97 125.056C570.367 125.056 572.372 124.25 573.984 122.638C575.596 121.026 576.402 118.98 576.402 116.5C576.402 114.02 575.596 111.974 573.984 110.362C572.372 108.75 570.367 107.944 567.97 107.944C565.572 107.944 563.568 108.75 561.956 110.362C560.385 111.974 559.6 114.02 559.6 116.5C559.6 118.98 560.385 121.026 561.956 122.638ZM607.262 100.132C610.651 100.132 613.441 101.269 615.632 103.542C617.864 105.815 618.98 108.957 618.98 112.966V132H610.982V113.958C610.982 111.891 610.424 110.321 609.308 109.246C608.192 108.13 606.704 107.572 604.844 107.572C602.777 107.572 601.124 108.213 599.884 109.494C598.644 110.775 598.024 112.697 598.024 115.26V132H590.026V101H598.024V104.472C599.967 101.579 603.046 100.132 607.262 100.132ZM632.567 119.786C633.642 123.671 636.556 125.614 641.309 125.614C644.368 125.614 646.683 124.581 648.253 122.514L654.701 126.234C651.643 130.657 647.137 132.868 641.185 132.868C636.06 132.868 631.947 131.318 628.847 128.218C625.747 125.118 624.197 121.212 624.197 116.5C624.197 111.829 625.727 107.944 628.785 104.844C631.844 101.703 635.771 100.132 640.565 100.132C645.112 100.132 648.853 101.703 651.787 104.844C654.763 107.985 656.251 111.871 656.251 116.5C656.251 117.533 656.148 118.629 655.941 119.786H632.567ZM632.443 113.586H648.253C647.799 111.478 646.848 109.907 645.401 108.874C643.996 107.841 642.384 107.324 640.565 107.324C638.416 107.324 636.639 107.882 635.233 108.998C633.828 110.073 632.898 111.602 632.443 113.586Z" fill="white"/>
<path d="M416.908 11.6H424.348V55H415.792V20.652L407.608 22.946L405.5 15.63L416.908 11.6ZM429.601 11.6H457.625V18.854L442.931 55H433.879L448.139 19.784H429.601V11.6ZM464.063 46.444L459.413 63.68H452.903L455.383 46.444H464.063ZM484.774 55.868C479.359 55.868 475.102 53.822 472.002 49.73C468.943 45.5967 467.414 40.12 467.414 33.3C467.414 26.48 468.943 21.024 472.002 16.932C475.102 12.7987 479.359 10.732 484.774 10.732C490.23 10.732 494.487 12.7987 497.546 16.932C500.605 21.024 502.134 26.48 502.134 33.3C502.134 40.12 500.605 45.5967 497.546 49.73C494.487 53.822 490.23 55.868 484.774 55.868ZM478.202 43.902C479.69 46.2993 481.881 47.498 484.774 47.498C487.667 47.498 489.858 46.2787 491.346 43.84C492.875 41.4013 493.64 37.888 493.64 33.3C493.64 28.6707 492.875 25.1367 491.346 22.698C489.858 20.2593 487.667 19.04 484.774 19.04C481.881 19.04 479.69 20.2593 478.202 22.698C476.714 25.1367 475.97 28.6707 475.97 33.3C475.97 37.9293 476.714 41.4633 478.202 43.902ZM523.827 55.868C518.412 55.868 514.155 53.822 511.055 49.73C507.996 45.5967 506.467 40.12 506.467 33.3C506.467 26.48 507.996 21.024 511.055 16.932C514.155 12.7987 518.412 10.732 523.827 10.732C529.283 10.732 533.54 12.7987 536.599 16.932C539.658 21.024 541.187 26.48 541.187 33.3C541.187 40.12 539.658 45.5967 536.599 49.73C533.54 53.822 529.283 55.868 523.827 55.868ZM517.255 43.902C518.743 46.2993 520.934 47.498 523.827 47.498C526.72 47.498 528.911 46.2787 530.399 43.84C531.928 41.4013 532.693 37.888 532.693 33.3C532.693 28.6707 531.928 25.1367 530.399 22.698C528.911 20.2593 526.72 19.04 523.827 19.04C520.934 19.04 518.743 20.2593 517.255 22.698C515.767 25.1367 515.023 28.6707 515.023 33.3C515.023 37.9293 515.767 41.4633 517.255 43.902ZM562.88 55.868C557.465 55.868 553.208 53.822 550.108 49.73C547.049 45.5967 545.52 40.12 545.52 33.3C545.52 26.48 547.049 21.024 550.108 16.932C553.208 12.7987 557.465 10.732 562.88 10.732C568.336 10.732 572.593 12.7987 575.652 16.932C578.71 21.024 580.24 26.48 580.24 33.3C580.24 40.12 578.71 45.5967 575.652 49.73C572.593 53.822 568.336 55.868 562.88 55.868ZM556.308 43.902C557.796 46.2993 559.986 47.498 562.88 47.498C565.773 47.498 567.964 46.2787 569.452 43.84C570.981 41.4013 571.746 37.888 571.746 33.3C571.746 28.6707 570.981 25.1367 569.452 22.698C567.964 20.2593 565.773 19.04 562.88 19.04C559.986 19.04 557.796 20.2593 556.308 22.698C554.82 25.1367 554.076 28.6707 554.076 33.3C554.076 37.9293 554.82 41.4633 556.308 43.902ZM613.588 29.518V37.02H603.358V47.25H595.856V37.02H585.688V29.518H595.856V19.35H603.358V29.518H613.588Z" fill="#ED1D25"/>
</svg>
