<svg width="27" height="27" viewBox="0 0 27 27" fill="none" xmlns="http://www.w3.org/2000/svg">
<path d="M13.4326 0.5C14.8759 0.5 15.9055 0.756498 16.7256 1.13965C17.5515 1.52555 18.1927 2.05242 18.8594 2.64258C20.2002 3.82943 21.591 5.2336 24.5508 5.7207C25.6356 5.89988 26.4255 6.91647 26.3623 8.03711C26.0768 13.1257 24.9189 16.8203 22.8008 19.6963C20.7128 22.5311 17.6518 24.6215 13.4326 26.4531C9.21351 24.6215 6.15241 22.5311 4.06445 19.6963C1.94629 16.8203 0.789376 13.1257 0.503906 8.03711C0.440632 6.91482 1.2303 5.89868 2.31445 5.7207C5.27434 5.23367 6.66505 3.82944 8.00586 2.64258C8.67258 2.05242 9.31471 1.52555 10.1406 1.13965C10.9605 0.756651 11.9898 0.500019 13.4326 0.5Z" fill="url(#paint0_linear_5137_7653)" stroke="url(#paint1_linear_5137_7653)"/>
<path d="M12.0839 18.8996C11.7383 18.8996 11.3927 18.7673 11.1295 18.504L7.07948 14.454C6.55163 13.9262 6.55163 13.073 7.07948 12.5451C7.60733 12.0173 8.46053 12.0173 8.98838 12.5451L12.0839 15.6407L17.8795 9.84511C18.4073 9.31726 19.2605 9.31726 19.7884 9.84511C20.3162 10.373 20.3162 11.2262 19.7884 11.754L13.0384 18.504C12.7751 18.7673 12.4295 18.8996 12.0839 18.8996Z" fill="white"/>
<defs>
<linearGradient id="paint0_linear_5137_7653" x1="9" y1="-4" x2="19.5" y2="22" gradientUnits="userSpaceOnUse">
<stop stop-color="#433131"/>
<stop offset="1" stop-color="#FF000A"/>
</linearGradient>
<linearGradient id="paint1_linear_5137_7653" x1="13.4328" y1="0" x2="13.4328" y2="27" gradientUnits="userSpaceOnUse">
<stop stop-color="#FE9498"/>
<stop offset="1" stop-color="#940006"/>
</linearGradient>
</defs>
</svg>
