<svg width="22" height="20" viewBox="0 0 22 20" fill="none" xmlns="http://www.w3.org/2000/svg">
<path d="M22.0005 11.0002H15.4004V2.20005C15.4004 0.984522 16.3849 0 17.6004 0H19.8005C21.016 0 22.0005 0.984522 22.0005 2.20005V11.0002Z" fill="white"/>
<path d="M15.4004 11H22.0005V17.6001C22.0005 18.8157 21.016 19.8002 19.8005 19.8002H17.6004C16.3849 19.8002 15.4004 18.8157 15.4004 17.6001V11Z" fill="url(#paint0_linear_5137_7644)"/>
<path d="M14.3013 14.3002H7.70117V7.70005C7.70117 6.48452 8.68569 5.5 9.90122 5.5H12.1013C13.3168 5.5 14.3013 6.48452 14.3013 7.70005V14.3002Z" fill="#FFDDDE"/>
<path d="M7.70117 14.3008H14.3013V17.6009C14.3013 18.8164 13.3168 19.8009 12.1013 19.8009H9.90122C8.68569 19.8009 7.70117 18.8164 7.70117 17.6009V14.3008Z" fill="url(#paint1_linear_5137_7644)"/>
<path d="M6.60014 9.89939H0V4.39927C0 3.18374 0.984522 2.19922 2.20005 2.19922H4.4001C5.61562 2.19922 6.60014 3.18374 6.60014 4.39927V9.89939Z" fill="#FFDDDE"/>
<path d="M0 9.89844H6.60014V17.5986C6.60014 18.8141 5.61562 19.7987 4.4001 19.7987H2.20005C0.984522 19.7987 0 18.8141 0 17.5986V9.89844Z" fill="url(#paint2_linear_5137_7644)"/>
<defs>
<linearGradient id="paint0_linear_5137_7644" x1="18.7005" y1="11" x2="18.7005" y2="19.8002" gradientUnits="userSpaceOnUse">
<stop stop-color="#FF4D4D"/>
<stop offset="0.480769" stop-color="#BC0B12"/>
</linearGradient>
<linearGradient id="paint1_linear_5137_7644" x1="11.0012" y1="14.3008" x2="11.0012" y2="19.8009" gradientUnits="userSpaceOnUse">
<stop stop-color="#FF4D4D"/>
<stop offset="0.480769" stop-color="#BC0B12"/>
</linearGradient>
<linearGradient id="paint2_linear_5137_7644" x1="3.30007" y1="9.89844" x2="3.30007" y2="19.7987" gradientUnits="userSpaceOnUse">
<stop stop-color="#FF4D4D"/>
<stop offset="0.480769" stop-color="#BC0B12"/>
</linearGradient>
</defs>
</svg>
